<?xml version="1.0" encoding="UTF-8" standalone="no"?>
<!-- Created with Inkscape (http://www.inkscape.org/) -->

<svg
   width="1080"
   height="1080"
   viewBox="0 0 285.74999 285.75"
   version="1.1"
   id="svg5"
   xml:space="preserve"
   inkscape:version="1.2.1 (9c6d41e410, 2022-07-14)"
   sodipodi:docname="abogabot-logosquare-white.svg"
   xmlns:inkscape="http://www.inkscape.org/namespaces/inkscape"
   xmlns:sodipodi="http://sodipodi.sourceforge.net/DTD/sodipodi-0.dtd"
   xmlns="http://www.w3.org/2000/svg"
   xmlns:svg="http://www.w3.org/2000/svg"><sodipodi:namedview
     id="namedview7"
     pagecolor="#505050"
     bordercolor="#eeeeee"
     borderopacity="1"
     inkscape:showpageshadow="0"
     inkscape:pageopacity="0"
     inkscape:pagecheckerboard="0"
     inkscape:deskcolor="#505050"
     inkscape:document-units="px"
     showgrid="false"
     inkscape:zoom="0.38395763"
     inkscape:cx="19.533405"
     inkscape:cy="653.71796"
     inkscape:window-width="1920"
     inkscape:window-height="1017"
     inkscape:window-x="1072"
     inkscape:window-y="394"
     inkscape:window-maximized="1"
     inkscape:current-layer="layer1" /><defs
     id="defs2" /><g
     inkscape:label="Layer 1"
     inkscape:groupmode="layer"
     id="layer1"><path
       style="fill:#ffffff;stroke-width:0.999998"
       d="M 0,142.875 V 0 H 142.875 285.75 V 142.875 285.74999 H 142.875 0 Z m 276.8203,0 V 8.9297 H 142.875 8.929659 V 142.875 276.82029 H 142.875 276.8203 Z M 135.8854,248.17869 c -4.1629,-2.962 -4.1724,-2.9872 -4.1038,-10.8831 0.04,-4.3528 1.9231,-40.72919 4.1895,-80.83639 2.2664,-40.1071 3.9098,-73.133 3.652,-73.3908 -0.655,-0.655 -45.861391,-0.591 -45.861391,0.07 0,0.294 6.278701,25.6903 13.952601,56.4374 7.67399,30.7471 13.95269,57.2631 13.95269,58.9245 0,4.85359 -4.8896,10.85349 -11.41789,14.01079 -19.062001,9.2191 -46.816301,4.2056 -54.085001,-9.7697 -2.1057,-4.04849 -2.9858,-0.541 17.0059,-67.77339 8.8698,-29.8292 16.1268,-54.8184 16.1268,-55.5315 0,-0.946 6.7702,-1.2966 25.048891,-1.2966 13.7769,0 25.2956,-0.399 25.5971,-0.887 0.302,-0.488 1.1197,-10.1502 1.8181,-21.4719 0.699,-11.3218 1.486,-20.801 1.7501,-21.0652 1.3346,-1.3346 1.8793,2.5277 3.0798,21.8392 l 1.3071,21.0268 26.9545,0.299 26.9545,0.299 14.0276,56.6281 c 7.7152,31.1455 14.3406,58.4507 14.7232,60.6783 1.7524,10.20449 -8.0342,18.48089 -24.9578,21.10669 -17.9615,2.7869 -36.1767,-3.9526 -40.3333,-14.9229 -1.51,-3.98509 -1.5715,-3.74639 17.3273,-67.25809 8.2365,-27.6797 14.9754,-50.6597 14.9754,-51.0666 0,-0.407 -11.0505,-0.74 -24.5566,-0.74 H 148.456 l 0.03,4.7439 c 0.02,2.6091 1.9727,38.8999 4.3482,80.6462 2.3756,41.74629 4.0783,76.29939 3.7838,76.78469 -0.294,0.485 -2.4923,2.1178 -4.8841,3.6277 -5.6723,3.5807 -10.5986,3.5113 -15.8477,-0.224 z M 88.698909,195.0578 c 0.809,-2.5175 1.3351,-104.7142 0.535,-103.8314 -0.83,0.915 -31.1908,102.2778 -31.1908,104.1331 0,1.7316 30.098,1.4354 30.656,-0.302 z m 29.952891,0.558 c 0.442,-0.796 -12.02209,-51.5506 -21.175791,-86.2272 l -4.2724,-16.1851 -0.726,9.4878 c -0.4,5.2183 -0.776,28.4494 -0.837,51.6248 l -0.111,42.1369 h 13.328701 c 7.3307,0 13.53799,-0.377 13.79389,-0.837 z m 79.704,-52.7409 0.228,-53.02 -15.5599,51.9038 c -8.5579,28.5471 -15.5671,52.5458 -15.5761,53.3306 -0.01,1.1046 3.448,1.3566 15.3315,1.1162 l 15.3478,-0.311 z m 30.0333,51.6247 c -0.322,-1.0743 -6.2477,-24.5566 -13.1694,-52.1828 -11.4119,-45.5478 -12.6571,-49.7613 -13.3606,-45.2066 -0.427,2.7627 -0.813,26.245 -0.858,52.1829 l -0.08,47.1599 h 14.0279 c 12.8384,0 13.9782,-0.166 13.4433,-1.9534 z"
       id="path195" /></g></svg>
