<?xml version="1.0" encoding="UTF-8" standalone="no"?>
<!-- Created with Inkscape (http://www.inkscape.org/) -->

<svg
   width="585"
   height="108"
   viewBox="0 0 154.78125 28.575"
   version="1.1"
   id="svg12"
   xml:space="preserve"
   inkscape:export-filename="logo-black.png"
   inkscape:export-xdpi="96"
   inkscape:export-ydpi="96"
   inkscape:version="1.2.1 (9c6d41e410, 2022-07-14)"
   sodipodi:docname="abogabot-logo-black.svg"
   xmlns:inkscape="http://www.inkscape.org/namespaces/inkscape"
   xmlns:sodipodi="http://sodipodi.sourceforge.net/DTD/sodipodi-0.dtd"
   xmlns="http://www.w3.org/2000/svg"
   xmlns:svg="http://www.w3.org/2000/svg"><sodipodi:namedview
     id="namedview14"
     pagecolor="#ffffff"
     bordercolor="#eeeeee"
     borderopacity="1"
     inkscape:showpageshadow="0"
     inkscape:pageopacity="0"
     inkscape:pagecheckerboard="0"
     inkscape:deskcolor="#505050"
     inkscape:document-units="px"
     showgrid="false"
     inkscape:lockguides="false"
     inkscape:zoom="1.0255231"
     inkscape:cx="358.35371"
     inkscape:cy="52.656056"
     inkscape:window-width="1920"
     inkscape:window-height="1017"
     inkscape:window-x="1072"
     inkscape:window-y="394"
     inkscape:window-maximized="1"
     inkscape:current-layer="layer1"><sodipodi:guide
       position="0,28.575"
       orientation="0,585"
       id="guide338"
       inkscape:locked="false" /><sodipodi:guide
       position="154.78125,28.575"
       orientation="108,0"
       id="guide340"
       inkscape:locked="false" /><sodipodi:guide
       position="154.78125,0"
       orientation="0,-585"
       id="guide342"
       inkscape:locked="false" /><sodipodi:guide
       position="0,0"
       orientation="-108,0"
       id="guide344"
       inkscape:locked="false" /></sodipodi:namedview><defs
     id="defs9" /><g
     inkscape:label="Layer 1"
     inkscape:groupmode="layer"
     id="layer1"><path
       style="fill:#000000;stroke-width:1"
       d="M 0.10207672,14.285157 V -0.00234343 H 14.389577 28.677077 V 14.285157 28.572667 H 14.389577 0.10207672 Z M 27.618737,14.152867 V 0.79140657 H 14.257287 0.89582672 V 14.152867 27.514327 H 14.257287 27.618737 Z m -14.11936,10.58139 c -0.24964,-0.24965 -0.35804,-0.71974 -0.2898,-1.25677 0.0599,-0.47187 0.23269,-3.47732 0.38386,-6.67878 0.15117,-3.20146 0.34118,-6.44591 0.42224,-7.2099004 l 0.14739,-1.38906 h -2.26799 c -1.63467,0 -2.2697503,0.0924 -2.2742603,0.33073 -0.003,0.1819 0.6188403,2.8608804 1.3828703,5.9533004 l 1.38914,5.62257 -0.71445,0.71444 c -0.5925,0.5925 -1.00212,0.73277 -2.3998403,0.82177 -1.97983,0.12606 -3.25585,-0.38544 -3.5125,-1.40801 -0.10692,-0.42598 0.36675,-2.43972 1.35248,-5.74988 0.83436,-2.80186 1.62665,-5.4812504 1.76064,-5.9541904 l 0.24362,-0.8599 h 2.5011103 2.5011 l 0.0313,-1.38906 c 0.0172,-0.76399 0.11305,-1.74625 0.21297,-2.18281 0.14023,-0.61268 0.22777,-0.2958 0.38376,1.38906 l 0.20208,2.18281 h 2.61745 2.61745 l 0.26207,0.99219 c 1.64954,6.2453104 2.70409,11.0018204 2.56342,11.5623004 -0.25837,1.02942 -1.52786,1.54401 -3.49937,1.41848 -1.30194,-0.0829 -1.8175,-0.24502 -2.33988,-0.73577 -0.3685,-0.34619 -0.67001,-0.76878 -0.67001,-0.93908 0,-0.17031 0.71523,-2.73916 1.58939,-5.70857 0.87417,-2.96941 1.53275,-5.5477504 1.46351,-5.7296504 -0.0873,-0.22947 -0.82814,-0.33073 -2.41963,-0.33073 h -2.29375 l 0.1593,1.9182304 c 0.0876,1.05502 0.30413,4.6781 0.48113,8.05128 0.26316,5.01505 0.25898,6.20878 -0.0229,6.54844 -0.4372,0.52678 -1.44516,0.53528 -1.96389,0.0166 z m -4.5395903,-7.07566 c 0.0944,-1.05502 0.13431,-3.40651 0.0887,-5.22552 l -0.0829,-3.3072904 -1.43413,4.8947904 c -0.78877,2.69214 -1.48612,5.04362 -1.54966,5.22552 -0.0833,0.2386 0.29143,0.33073 1.34541,0.33073 h 1.46094 z m 2.9456103,1.45521 c -0.0762,-0.25466 -0.62849,-2.42609 -1.22726,-4.8254 -0.59878,-2.39932 -1.1397503,-4.4134602 -1.2021603,-4.4758704 -0.0624,-0.0624 -0.11349,2.1090104 -0.11349,4.8254004 v 4.93889 h 1.3407503 c 1.15331,0 1.32137,-0.0647 1.20216,-0.46302 z m 8.02517,-4.7625 -0.0152,-5.2255204 -1.03895,3.4395804 c -0.57142,1.89177 -1.26976,4.24326 -1.55186,5.22552 l -0.5129,1.78594 h 1.56711 1.56711 z m 2.92567,5.08256 c 0,-0.31004 -2.42515,-9.7787204 -2.5319,-9.8854704 -0.0627,-0.0627 -0.11393,2.1681004 -0.11393,4.9572504 v 5.07118 h 1.32292 c 0.7276,0 1.32291,-0.0643 1.32291,-0.14296 z m 48.28646,1.75229 c -2.21191,-0.61176 -4.01595,-2.00332 -4.93655,-3.80785 -1.17754,-2.30818 -0.8038,-5.66641 0.85319,-7.6663204 2.70691,-3.26709 8.47751,-3.41746 11.35489,-0.29587 1.45134,1.5745104 1.85714,2.6239104 1.85401,4.7944004 -0.006,4.02911 -2.61967,6.75476 -6.78579,7.07597 -0.8503,0.0656 -1.90318,0.0204 -2.33975,-0.10033 z m 4.11129,-2.67289 c 2.66197,-1.35803 3.36745,-5.07011 1.40649,-7.40058 -2.23379,-2.6547104 -6.66746,-2.1608804 -8.05634,0.89734 -1.17928,2.59671 -0.16279,5.57495 2.27398,6.66263 1.18825,0.53038 3.16494,0.45838 4.37587,-0.15939 z m 12.55746,2.67238 c -1.52506,-0.42082 -2.22929,-0.79868 -3.31262,-1.7774 -2.08623,-1.88479 -2.8208,-4.52423 -2.02037,-7.25959 0.53393,-1.82463 1.70956,-3.2436504 3.44154,-4.1540204 1.18757,-0.62423 1.66769,-0.71613 3.74354,-0.7166 2.41191,-5.3e-4 3.39048,0.30082 5.02708,1.54818 0.52061,0.39678 0.51575,0.41688 -0.30018,1.2418404 l -0.82934,0.83854 -0.78227,-0.57836 c -1.66888,-1.2338504 -4.46582,-1.2167604 -6.22805,0.038 -1.53953,1.09625 -2.22855,3.92555 -1.42457,5.84974 0.48642,1.16417 2.07378,2.50282 3.22362,2.71853 1.26057,0.23648 3.44569,0.0104 3.95076,-0.40877 0.30166,-0.25036 0.40566,-0.87099 0.40566,-2.42094 v -2.08427 h 1.19957 1.19958 l -0.0751,2.84427 -0.0751,2.84427 -1.45521,0.72022 c -1.578,0.78099 -4.29163,1.14177 -5.68855,0.75631 z m 44.833793,-0.1014 c -3.56354,-1.00754 -5.54492,-3.87867 -5.21182,-7.55222 0.34082,-3.7586104 3.36448,-6.3906204 7.34157,-6.3906204 4.13335,0 7.39899,3.0418204 7.40575,6.8981804 0.005,2.95737 -1.34042,5.25558 -3.77313,6.4443 -1.68267,0.82222 -4.09042,1.07307 -5.76237,0.60036 z m 4.53553,-2.65175 c 1.7204,-0.90758 2.39994,-2.22287 2.29446,-4.44112 -0.0679,-1.42813 -0.21794,-1.9257 -0.81788,-2.71225 -0.9954,-1.3050402 -2.12704,-1.8419304 -3.88236,-1.8419304 -1.75533,0 -2.88697,0.5368902 -3.88237,1.8419304 -1.03812,1.36104 -1.17898,3.98477 -0.29527,5.49973 0.77849,1.33458 2.4987,2.26881 4.17764,2.26881 0.7867,0 1.66578,-0.22479 2.40578,-0.61517 z m -99.861443,-3.41973 c 1.53081,-3.38336 2.90309,-6.4789904 3.04952,-6.8791704 0.24344,-0.66528 0.38301,-0.72755 1.62943,-0.72698 l 1.36317,5.3e-4 2.22948,4.9603104 c 1.22621,2.72818 2.62219,5.82352 3.10217,6.87855 l 0.8727,1.91823 h -1.33604 -1.33604 l -0.68497,-1.5875 -0.68498,-1.5875 h -3.49397 -3.49397 l -0.68848,1.5875 -0.68848,1.5875 h -1.31141 -1.31142 l 2.78329,-6.15156 z m 7.15587,0.52917 c -1.13597,-2.81441 -2.42112,-5.47288 -2.56503,-5.30602 -0.15266,0.17699 -1.74386,3.81798 -2.28615,5.23117 -0.13325,0.34722 0.21413,0.40558 2.41452,0.40558 1.95093,0 2.53799,-0.0797 2.43666,-0.33073 z m 6.95605,-1.23108 V 7.4059966 h 4.17727 c 3.8058,0 4.28225,0.0529 5.35781,0.59531 2.17134,1.09494 2.67843,3.6360504 1.05046,5.2640104 l -0.70965,0.70965 0.61891,0.28199 c 1.57541,0.71781 2.23477,3.74444 1.1235,5.15718 -1.1185,1.42195 -1.82976,1.59698 -6.92195,1.70342 l -4.69635,0.0982 z m 8.7128,4.40218 c 0.74514,-0.37874 1.09669,-1.40216 0.77779,-2.26425 -0.34527,-0.93335 -1.76492,-1.36987 -4.45501,-1.36987 h -2.38975 v 1.98437 1.98438 l 2.71198,-0.004 c 1.62115,-0.002 2.97062,-0.13537 3.35499,-0.33073 z m -1.22536,-5.76829 c 1.14557,-0.31811 1.67029,-1.15352 1.40026,-2.22939 -0.25015,-0.9966804 -1.55131,-1.4572804 -4.11671,-1.4572804 h -2.12516 v 1.9843804 1.98437 l 1.91823,-0.002 c 1.05502,-7.9e-4 2.37055,-0.12708 2.92338,-0.2806 z m 40.31314,2.06802 c 1.530813,-3.38336 2.903093,-6.4789904 3.049523,-6.8791704 0.24343,-0.66528 0.383,-0.72755 1.62942,-0.72698 l 1.36318,5.3e-4 2.22947,4.9603104 c 1.22621,2.72818 2.62219,5.82352 3.10218,6.87855 l 0.87269,1.91823 h -1.33604 -1.33604 l -0.68497,-1.5875 -0.68497,-1.5875 h -3.49398 -3.49396 l -0.688483,1.5875 -0.68848,1.5875 h -1.31141 -1.31142 l 2.78329,-6.15156 z m 7.155863,0.52917 c -1.13596,-2.81441 -2.42112,-5.47288 -2.56503,-5.30602 -0.15266,0.17699 -1.74386,3.81798 -2.28615,5.23117 -0.13325,0.34722 0.21413,0.40558 2.41452,0.40558 1.95093,0 2.53799,-0.0797 2.43666,-0.33073 z m 6.95605,-1.25678 V 7.4059966 l 4.16718,0.006 c 4.53926,0.006 5.87604,0.32424 6.77797,1.61193 0.84304,1.2036104 0.3568,4.0392304 -0.80404,4.6888604 -0.38083,0.21312 -0.33067,0.30518 0.36119,0.66296 1.60617,0.83058 2.14751,3.3487 1.0671,4.96371 -0.96238,1.43856 -2.43641,1.79968 -7.40222,1.81348 l -4.16718,0.0116 z m 8.59285,4.45256 c 0.37414,-0.17047 0.7468,-0.57508 0.82813,-0.89913 0.50671,-2.01891 -0.68901,-2.75866 -4.46005,-2.75926 l -2.57968,-4.1e-4 v 1.98437 1.98438 h 2.76567 c 1.5501,0 3.06466,-0.13623 3.44593,-0.30995 z m -0.35561,-6.2222 c 0.30808,-0.30809 0.56015,-0.88097 0.56015,-1.27306 0,-1.3975604 -0.82322,-1.8212804 -3.76822,-1.9395704 l -2.64792,-0.10635 v 2.0459204 2.04592 l 2.64792,-0.10636 c 2.25942,-0.0907 2.7301,-0.18853 3.20807,-0.6665 z m 26.15859,2.82798 V 9.5226566 h -2.24896 -2.24896 v -1.05833 -1.05833 h 5.82084 5.82083 v 1.05833 1.05833 h -2.24896 -2.24896 v 5.8208404 5.82083 h -1.32291 -1.32292 z"
       id="path233" /></g></svg>
